<?xml version="1.0" encoding="UTF-8"?><svg id="a" xmlns="http://www.w3.org/2000/svg" xmlns:xlink="http://www.w3.org/1999/xlink" viewBox="0 0 1080 1080"><defs><style>.e{fill:#b7a73f;}.e,.f,.g{fill-rule:evenodd;}.h{fill:#182439;}.f,.g{fill:#ecd11c;}.g{filter:url(#d);}</style><filter id="d"><feDropShadow dx="7" dy="7" flood-opacity="0.25" stdDeviation="7"/></filter></defs><g id="b"><polygon class="h" points="530 922 83 391 275 204.588 834 204.588 1011 396 530 922"/></g><g id="c"><path class="e" d="M741.251,662.107H334.31v64.28h406.941v-64.28Z"/><path class="e" d="M697.019,779.656H381.781v-64.28h315.239v64.28Zm-224.32-116.141h-168.684v-18.093h168.684v18.093Zm270.981,31.964L141.126,347.594l60.584-104.935,602.554,347.885-60.584,104.935Zm194.602-243.383l-386.157-222.949,12.445-21.555,386.157,222.949-12.445,21.555Z"/><path class="e" d="M963.286,415.916l-386.157-222.949-12.445,21.555,386.157,222.949,12.445-21.555Z"/><path class="e" d="M963.292,426.04l-386.157-222.949,12.445-21.555,386.157,222.949-12.445,21.555Zm-34.816,34.298l-408.373-235.774,9.801-16.976,408.373,235.774-9.801,16.976Z"/><path class="e" d="M928.475,456.992L504.426,212.167l-9.801,16.976,424.049,244.825,9.801-16.976Z"/><path class="e" d="M908.873,490.95L455.42,229.148l12.445-21.555,453.453,261.801-12.445,21.555Zm-590.686-107.299l-136.251-78.664,40.279-69.765,136.251,78.664-40.279,69.764Z"/></g><path class="g" d="M842.637,179.14H258.378L44.915,391.505l484.635,583.598,38.662-43.38,479.723-538.224-205.298-214.358h0Zm-21.344,50l158.572,165.579-448.973,503.732L112.578,394.719l166.433-165.579H821.292Z"/><path class="f" d="M842.637,179.14H258.378L44.915,391.505l484.635,583.598,38.662-43.38,479.723-538.224-205.298-214.358h0Zm-21.344,50l158.572,165.579-448.973,503.732L112.578,394.719l166.433-165.579H821.292Z"/></svg>